<svg height='100px' width='100px'  fill="#ec1620" xmlns="http://www.w3.org/2000/svg" xmlns:xlink="http://www.w3.org/1999/xlink" version="1.1" x="0px" y="0px" viewBox="0 0 96 96" enable-background="new 0 0 96 96" xml:space="preserve"><g><polygon points="48.5,26.475 47.5,26.475 47.5,47.5 26.475,47.5 26.475,48.5 47.5,48.5 47.5,69.525 48.5,69.525 48.5,48.5    69.525,48.5 69.525,47.5 48.5,47.5  "></polygon><path d="M48,7.5C25.668,7.5,7.5,25.668,7.5,48c0,22.332,18.168,40.5,40.5,40.5c22.332,0,40.5-18.168,40.5-40.5   C88.5,25.668,70.332,7.5,48,7.5z M48,87.5C26.22,87.5,8.5,69.78,8.5,48S26.22,8.5,48,8.5S87.5,26.22,87.5,48S69.78,87.5,48,87.5z"></path></g></svg>