<svg height='100px' width='100px'  fill="#ec1620" xmlns="http://www.w3.org/2000/svg" xmlns:xlink="http://www.w3.org/1999/xlink" version="1.1" x="0px" y="0px" viewBox="0 0 100 100" style="enable-background:new 0 0 100 100;" xml:space="preserve"><g><path d="M50.7,66.4c0.2,0.2,0.4,0.2,0.7,0.2c0.3,0,0.6-0.1,0.8-0.3l12.6-14.6c0.3-0.4,0.3-0.9,0-1.3L52.2,35.7   c-0.4-0.4-1-0.5-1.4-0.1c-0.4,0.4-0.5,1-0.1,1.4L61.8,50H31c-0.6,0-1,0.4-1,1s0.4,1,1,1h30.8L50.6,64.9   C50.3,65.4,50.3,66,50.7,66.4z"></path><path d="M84.5,36.2c0.2,0.5,0.8,0.8,1.3,0.5c0.5-0.2,0.8-0.8,0.5-1.3C80,20,65.1,10,48.4,10c-22.6,0-41,18.4-41,41s18.4,41,41,41   C65.1,92,80,82,86.3,66.6c0.2-0.5,0-1.1-0.5-1.3c-0.5-0.2-1.1,0-1.3,0.5C78.5,80.5,64.3,90,48.4,90c-21.5,0-39-17.5-39-39   s17.5-39,39-39C64.3,12,78.5,21.5,84.5,36.2z"></path></g></svg>